<?xml version="1.0" encoding="UTF-8"?>
<svg width="42px" height="42px" viewBox="0 0 42 42" version="1.1" xmlns="http://www.w3.org/2000/svg" xmlns:xlink="http://www.w3.org/1999/xlink">
    <!-- Generator: Sketch 47.1 (45422) - http://www.bohemiancoding.com/sketch -->
    <title>right 13</title>
    <desc>Created with Sketch.</desc>
    <defs></defs>
    <g id="v3" stroke="none" stroke-width="1" fill="none" fill-rule="evenodd" opacity="0.5">
        <g id="#2-Job-page-Copy" transform="translate(-1249.000000, -429.000000)" stroke="#FFFFFF" fill-rule="nonzero" fill="#FFFFFF">
            <g id="right-13" transform="translate(1250.000000, 430.000000)">
                <path d="M20,39.9739583 C8.98611111,39.9739583 0.0260416667,31.0138889 0.0260416667,20 C0.0260416667,8.98611111 8.98611111,0.0260416667 20,0.0260416667 C31.0138889,0.0260416667 39.9739583,8.98611111 39.9739583,20 C39.9739583,31.0138889 31.0138889,39.9739583 20,39.9739583 Z M20,1.76215278 C9.94444444,1.76215278 1.76215278,9.94444444 1.76215278,20 C1.76215278,30.0555556 9.94444444,38.2378472 20,38.2378472 C30.0555556,38.2378472 38.2378472,30.0555556 38.2378472,20 C38.2378472,9.94444444 30.0555556,1.76215278 20,1.76215278 Z" id="Shape"></path>
                <path d="M17.7965471,28.5633681 C17.6280886,28.5633681 17.4596302,28.4988801 17.3306542,28.3712202 C17.0740183,28.1145843 17.0740183,27.6973864 17.3306542,27.4407505 L24.7612505,20.0101541 L17.3319703,12.5782417 C17.0753344,12.3216058 17.0753344,11.904408 17.3319703,11.6477721 C17.5886062,11.3911362 18.005804,11.3911362 18.2624399,11.6477721 L26.1589291,19.5442613 C26.415565,19.8008972 26.415565,20.218095 26.1589291,20.4747309 L18.2624399,28.3712202 C18.1334639,28.5001961 17.9650055,28.5633681 17.7965471,28.5633681 Z" id="Shape" stroke-width="2"></path>
            </g>
        </g>
    </g>
</svg>