<?xml version="1.0" encoding="UTF-8"?>
<svg width="200px" height="60px" viewBox="0 0 200 60" version="1.1" xmlns="http://www.w3.org/2000/svg" xmlns:xlink="http://www.w3.org/1999/xlink">
    <!-- Generator: Sketch 47.1 (45422) - http://www.bohemiancoding.com/sketch -->
    <title>twitter</title>
    <desc>Created with Sketch.</desc>
    <defs>
        <polygon id="path-1" points="0 27 0 0 29 0 29 27"></polygon>
    </defs>
    <g id="v3" stroke="none" stroke-width="1" fill="none" fill-rule="evenodd">
        <g id="#2-Job-page_POP" transform="translate(-736.000000, -426.000000)">
            <g id="Group-10" transform="translate(320.000000, 247.000000)">
                <g id="Group-9" transform="translate(186.000000, 179.000000)">
                    <g id="twitter" transform="translate(230.000000, 0.000000)">
                        <rect id="Rectangle-3" fill="#1DA1F2" x="0" y="0" width="200" height="60" rx="4"></rect>
                        <path d="M100.904,31.496 L90.936,31.496 L90.936,23.592 L100.68,23.592 L100.68,24.936 L92.52,24.936 L92.52,26.888 L100.568,26.888 L100.568,28.2 L92.52,28.2 L92.52,30.152 L100.904,30.152 L100.904,31.496 Z M102.648,33.928 L102.648,35.272 L89.112,35.272 L89.112,33.928 L102.648,33.928 Z M108.632,29.176 C108.04533,29.176 107.514669,29.0960008 107.04,28.936 C106.565331,28.7759992 106.162668,28.5653346 105.832,28.304 C105.501332,28.0426654 105.245334,27.7386684 105.064,27.392 C104.882666,27.0453316 104.792,26.6800019 104.792,26.296 L104.792,25.656 C104.792,25.2719981 104.879999,24.9066684 105.056,24.56 C105.232001,24.2133316 105.485332,23.9093346 105.816,23.648 C106.146668,23.3866654 106.549331,23.1760008 107.024,23.016 C107.498669,22.8559992 108.034664,22.776 108.632,22.776 C109.229336,22.776 109.765331,22.8559992 110.24,23.016 C110.714669,23.1760008 111.117332,23.3866654 111.448,23.648 C111.778668,23.9093346 112.031999,24.2133316 112.208,24.56 C112.384001,24.9066684 112.472,25.2719981 112.472,25.656 L112.472,26.296 C112.472,26.6800019 112.381334,27.0453316 112.2,27.392 C112.018666,27.7386684 111.762668,28.0426654 111.432,28.304 C111.101332,28.5653346 110.698669,28.7759992 110.224,28.936 C109.749331,29.0960008 109.21867,29.176 108.632,29.176 Z M114.504,37.24 L114.504,22.488 L116.072,22.488 L116.072,37.24 L114.504,37.24 Z M107.896,36.792 L107.896,31.752 C107.30933,31.7733334 106.693337,31.784 106.048,31.784 L103.992,31.784 L103.992,30.408 C105.048005,30.408 106.015996,30.4026667 106.896,30.392 C107.776004,30.3813333 108.599996,30.3626668 109.368,30.336 C110.136004,30.3093332 110.863997,30.2746669 111.552,30.232 C112.240003,30.1893331 112.914663,30.1360003 113.576,30.072 L113.704,31.4 C113.031997,31.474667 112.357337,31.5359998 111.68,31.584 C111.002663,31.6320002 110.280004,31.6719998 109.512,31.704 L109.512,36.792 L107.896,36.792 Z M108.632,27.8 C109.31467,27.8 109.871998,27.6480015 110.304,27.344 C110.736002,27.0399985 110.952,26.6533357 110.952,26.184 L110.952,25.768 C110.952,25.2773309 110.736002,24.8853348 110.304,24.592 C109.871998,24.2986652 109.31467,24.152 108.632,24.152 C107.94933,24.152 107.392002,24.2986652 106.96,24.592 C106.527998,24.8853348 106.312,25.2773309 106.312,25.768 L106.312,26.184 C106.312,26.6533357 106.527998,27.0399985 106.96,27.344 C107.392002,27.6480015 107.94933,27.8 108.632,27.8 Z M120.856,25.032 L120.856,27.864 L125.48,27.864 L125.48,29.208 L120.856,29.208 L120.856,32.232 L122.248,32.232 C123.218672,32.232 124.119996,32.2080002 124.952,32.16 C125.784004,32.1119998 126.567996,32.0293339 127.304,31.912 L127.464,33.256 C127.026664,33.3200003 126.597335,33.3759998 126.176,33.424 C125.754665,33.4720002 125.320002,33.5066666 124.872,33.528 C124.423998,33.5493334 123.954669,33.5653333 123.464,33.576 C122.973331,33.5866667 122.440003,33.592 121.864,33.592 L119.288,33.592 L119.288,23.672 L126.04,23.672 L126.04,25.032 L120.856,25.032 Z M129,37.24 L129,29.208 L126.328,29.208 L126.328,27.832 L129,27.832 L129,22.488 L130.584,22.488 L130.584,37.24 L129,37.24 Z M143.56,31.672 C144.21067,31.672 144.815997,31.7333327 145.376,31.856 C145.936003,31.9786673 146.423998,32.1573322 146.84,32.392 C147.256002,32.6266678 147.581332,32.9093317 147.816,33.24 C148.050668,33.5706683 148.168,33.9493312 148.168,34.376 L148.168,34.952 C148.168,35.3786688 148.050668,35.7599983 147.816,36.096 C147.581332,36.4320017 147.256002,36.7146655 146.84,36.944 C146.423998,37.1733345 145.936003,37.3493327 145.376,37.472 C144.815997,37.5946673 144.21067,37.656 143.56,37.656 C142.90933,37.656 142.304003,37.5946673 141.744,37.472 C141.183997,37.3493327 140.696002,37.1733345 140.28,36.944 C139.863998,36.7146655 139.538668,36.4320017 139.304,36.096 C139.069332,35.7599983 138.952,35.3786688 138.952,34.952 L138.952,34.376 C138.952,33.9493312 139.069332,33.5706683 139.304,33.24 C139.538668,32.9093317 139.863998,32.6266678 140.28,32.392 C140.696002,32.1573322 141.183997,31.9786673 141.744,31.856 C142.304003,31.7333327 142.90933,31.672 143.56,31.672 Z M150.328,29.272 L150.328,30.616 L136.792,30.616 L136.792,29.272 L141.944,29.272 L141.944,26.376 L143.544,26.376 L143.544,29.272 L150.328,29.272 Z M138.568,23.08 L148.312,23.08 L148.312,24.952 C148.312,25.1226675 148.304,25.3439986 148.288,25.616 C148.272,25.8880014 148.248,26.1786651 148.216,26.488 C148.184,26.7973349 148.141334,27.114665 148.088,27.44 C148.034666,27.765335 147.976,28.0719986 147.912,28.36 L146.344,28.184 C146.482667,27.575997 146.578666,26.9973361 146.632,26.448 C146.685334,25.8986639 146.712,25.4053355 146.712,24.968 L146.712,24.424 L138.568,24.424 L138.568,23.08 Z M143.56,36.36 C143.986669,36.36 144.383998,36.3200004 144.752,36.24 C145.120002,36.1599996 145.439999,36.053334 145.712,35.92 C145.984001,35.786666 146.199999,35.6293342 146.36,35.448 C146.520001,35.2666658 146.6,35.0693344 146.6,34.856 L146.6,34.472 C146.6,34.2693323 146.520001,34.0746676 146.36,33.888 C146.199999,33.7013324 145.984001,33.541334 145.712,33.408 C145.439999,33.274666 145.120002,33.1680004 144.752,33.088 C144.383998,33.0079996 143.986669,32.968 143.56,32.968 C143.133331,32.968 142.736002,33.0079996 142.368,33.088 C141.999998,33.1680004 141.680001,33.274666 141.408,33.408 C141.135999,33.541334 140.920001,33.7013324 140.76,33.888 C140.599999,34.0746676 140.52,34.2693323 140.52,34.472 L140.52,34.856 C140.52,35.0693344 140.599999,35.2666658 140.76,35.448 C140.920001,35.6293342 141.135999,35.786666 141.408,35.92 C141.680001,36.053334 141.999998,36.1599996 142.368,36.24 C142.736002,36.3200004 143.133331,36.36 143.56,36.36 Z M158.12,22.776 C158.86667,22.776 159.546664,22.8533326 160.16,23.008 C160.773336,23.1626674 161.295998,23.3786653 161.728,23.656 C162.160002,23.9333347 162.493332,24.2666647 162.728,24.656 C162.962668,25.0453353 163.08,25.4746643 163.08,25.944 L163.08,26.52 C163.08,26.9893357 162.962668,27.4186647 162.728,27.808 C162.493332,28.1973353 162.160002,28.5306653 161.728,28.808 C161.295998,29.0853347 160.773336,29.3013326 160.16,29.456 C159.546664,29.6106674 158.86667,29.688 158.12,29.688 C157.362663,29.688 156.680003,29.6106674 156.072,29.456 C155.463997,29.3013326 154.944002,29.0853347 154.512,28.808 C154.079998,28.5306653 153.746668,28.1973353 153.512,27.808 C153.277332,27.4186647 153.16,26.9893357 153.16,26.52 L153.16,25.944 C153.16,25.4746643 153.277332,25.0453353 153.512,24.656 C153.746668,24.2666647 154.079998,23.9333347 154.512,23.656 C154.944002,23.3786653 155.463997,23.1626674 156.072,23.008 C156.680003,22.8533326 157.362663,22.776 158.12,22.776 Z M159.896,37.208 L159.896,32.392 L156.344,32.392 L156.344,37.208 L154.76,37.208 L154.76,32.392 L151.352,32.392 L151.352,31.048 L164.888,31.048 L164.888,32.392 L161.48,32.392 L161.48,37.208 L159.896,37.208 Z M158.12,28.312 C158.632003,28.312 159.098665,28.2666671 159.52,28.176 C159.941335,28.0853329 160.298665,27.9600008 160.592,27.8 C160.885335,27.6399992 161.114666,27.4480011 161.28,27.224 C161.445334,26.9999989 161.528,26.754668 161.528,26.488 L161.528,25.976 C161.528,25.709332 161.445334,25.4640011 161.28,25.24 C161.114666,25.0159989 160.885335,24.8240008 160.592,24.664 C160.298665,24.5039992 159.941335,24.3786671 159.52,24.288 C159.098665,24.1973329 158.632003,24.152 158.12,24.152 C157.607997,24.152 157.141335,24.1973329 156.72,24.288 C156.298665,24.3786671 155.941335,24.5039992 155.648,24.664 C155.354665,24.8240008 155.125334,25.0159989 154.96,25.24 C154.794666,25.4640011 154.712,25.709332 154.712,25.976 L154.712,26.488 C154.712,26.754668 154.794666,26.9999989 154.96,27.224 C155.125334,27.4480011 155.354665,27.6399992 155.648,27.8 C155.941335,27.9600008 156.298665,28.0853329 156.72,28.176 C157.141335,28.2666671 157.607997,28.312 158.12,28.312 Z" id="트위터-공유" fill="#FFFFFF"></path>
                        <rect id="Rectangle-4" fill="#1DA1F2" x="0" y="0" width="60" height="60"></rect>
                        <path d="M26.2913794,41.18 C36.5905563,41.18 42.2227756,32.6475999 42.2227756,25.2486038 C42.2227756,25.0062536 42.2178394,24.7650023 42.2069687,24.5248408 C43.3002603,23.7344801 44.2505027,22.7481732 45,21.6253926 C43.9967323,22.0713362 42.9170863,22.371538 41.7845065,22.5069036 C42.9405309,21.8137011 43.8280405,20.71714 44.2467479,19.4099157 C43.1649039,20.0512652 41.9668439,20.5174023 40.6912149,20.7690663 C39.6694479,19.6807201 38.2147784,19 36.6040553,19 C33.5119212,19 31.0044388,21.5075739 31.0044388,24.5985175 C31.0044388,25.0379039 31.0535628,25.4652932 31.149631,25.8752455 C26.4959526,25.6410825 22.3694133,23.4130041 19.6077027,20.0250639 C19.1268302,20.8525331 18.849551,21.8137285 18.849551,22.8393419 C18.849551,24.7819539 19.8380742,26.496896 21.3412814,27.5001636 C20.4226344,27.4717809 19.5596685,27.2196058 18.8054091,26.7998636 C18.8045848,26.8233559 18.8045848,26.8462593 18.8045848,26.8713671 C18.8045848,29.5830746 20.7346502,31.8471352 23.2967147,32.3601708 C22.8262092,32.4884389 22.3311783,32.5572161 21.820249,32.5572161 C21.4600068,32.5572161 21.1090325,32.5217597 20.767894,32.4562391 C21.4807407,34.6810115 23.5478293,36.2999769 25.9985315,36.3452178 C24.0821117,37.8473261 21.6679502,38.741979 19.0441602,38.741979 C18.5927584,38.741979 18.146824,38.7163034 17.7085458,38.6644705 C20.1866307,40.2528479 23.1291218,41.1796456 26.2916816,41.1796456" id="Shape" fill="#FFFFFF" fill-rule="nonzero"></path>
                        <g id="Page-1" transform="translate(16.000000, 17.000000)">
                            <mask id="mask-2" fill="white">
                                <use xlink:href="#path-1"></use>
                            </mask>
                            <g id="Clip-2"></g>
                        </g>
                        <path d="M61,15 L61,45" id="Line-2" stroke="#FFFFFF" opacity="0.3" stroke-linecap="square"></path>
                    </g>
                </g>
            </g>
        </g>
    </g>
</svg>