<?xml version="1.0" encoding="UTF-8"?>
<svg width="200px" height="60px" viewBox="0 0 200 60" version="1.1" xmlns="http://www.w3.org/2000/svg" xmlns:xlink="http://www.w3.org/1999/xlink">
    <!-- Generator: Sketch 47.1 (45422) - http://www.bohemiancoding.com/sketch -->
    <title>kakao</title>
    <desc>Created with Sketch.</desc>
    <defs>
        <polygon id="path-1" points="0 27 0 0 29 0 29 27"></polygon>
    </defs>
    <g id="v3" stroke="none" stroke-width="1" fill="none" fill-rule="evenodd">
        <g id="#2-Job-page_POP" transform="translate(-620.000000, -426.000000)">
            <g id="Group-10" transform="translate(320.000000, 247.000000)">
                <g id="Group-9" transform="translate(70.000000, 179.000000)">
                    <g id="kakao" transform="translate(230.000000, 0.000000)">
                        <rect id="Rectangle-3" fill="#FDEC00" x="0" y="0" width="200" height="60" rx="4"></rect>
                        <path d="M82.248,32.904 C83.1546712,32.4026642 83.9146636,31.9546686 84.528,31.56 C85.1413364,31.1653314 85.6453314,30.805335 86.04,30.48 C86.4346686,30.154665 86.7333323,29.8506681 86.936,29.568 C87.1386677,29.2853319 87.2826662,29.0053347 87.368,28.728 L82.264,28.872 L82.216,27.544 L87.48,27.448 L87.48,25.16 L82.52,25.16 L82.52,23.816 L89.048,23.816 L89.048,26.936 C89.048,27.394669 89.0373334,27.8159981 89.016,28.2 C88.9946666,28.5840019 88.9253339,28.9493316 88.808,29.296 C88.6906661,29.6426684 88.5093346,29.9893316 88.264,30.336 C88.0186654,30.6826684 87.6720022,31.0453314 87.224,31.424 C86.7759978,31.8026686 86.2106701,32.2159978 85.528,32.664 C84.8453299,33.1120022 84.008005,33.6133306 83.016,34.168 L82.248,32.904 Z M95.656,29.256 L93.384,29.256 L93.384,37.24 L91.8,37.24 L91.8,22.488 L93.384,22.488 L93.384,27.88 L95.656,27.88 L95.656,29.256 Z M96.808,32.904 C97.7146712,32.4026642 98.4746636,31.9546686 99.088,31.56 C99.7013364,31.1653314 100.205331,30.805335 100.6,30.48 C100.994669,30.154665 101.293332,29.8506681 101.496,29.568 C101.698668,29.2853319 101.842666,29.0053347 101.928,28.728 L96.824,28.872 L96.776,27.544 L102.04,27.448 L102.04,25.16 L97.08,25.16 L97.08,23.816 L103.608,23.816 L103.608,26.936 C103.608,27.394669 103.597333,27.8159981 103.576,28.2 C103.554667,28.5840019 103.485334,28.9493316 103.368,29.296 C103.250666,29.6426684 103.069335,29.9893316 102.824,30.336 C102.578665,30.6826684 102.232002,31.0453314 101.784,31.424 C101.335998,31.8026686 100.77067,32.2159978 100.088,32.664 C99.4053299,33.1120022 98.568005,33.6133306 97.576,34.168 L96.808,32.904 Z M110.216,29.256 L107.944,29.256 L107.944,37.24 L106.36,37.24 L106.36,22.488 L107.944,22.488 L107.944,27.88 L110.216,27.88 L110.216,29.256 Z M124.488,33.928 L124.488,35.272 L110.952,35.272 L110.952,33.928 L116.92,33.928 L116.92,31.24 C116.33333,31.1759997 115.786669,31.0506676 115.28,30.864 C114.773331,30.6773324 114.333335,30.4320015 113.96,30.128 C113.586665,29.8239985 113.293334,29.4640021 113.08,29.048 C112.866666,28.6319979 112.76,28.1733358 112.76,27.672 L112.76,26.904 C112.76,26.3493306 112.890665,25.8480022 113.152,25.4 C113.413335,24.9519978 113.770664,24.5733349 114.224,24.264 C114.677336,23.9546651 115.20533,23.7146675 115.808,23.544 C116.41067,23.3733325 117.047997,23.288 117.72,23.288 C118.392003,23.288 119.02933,23.3733325 119.632,23.544 C120.23467,23.7146675 120.762664,23.9546651 121.216,24.264 C121.669336,24.5733349 122.026665,24.9519978 122.288,25.4 C122.549335,25.8480022 122.68,26.3493306 122.68,26.904 L122.68,27.672 C122.68,28.1733358 122.570668,28.6319979 122.352,29.048 C122.133332,29.4640021 121.837335,29.8239985 121.464,30.128 C121.090665,30.4320015 120.650669,30.6773324 120.144,30.864 C119.637331,31.0506676 119.09067,31.1759997 118.504,31.24 L118.504,33.928 L124.488,33.928 Z M117.72,24.664 C117.261331,24.664 116.826669,24.7173328 116.416,24.824 C116.005331,24.9306672 115.642668,25.0853323 115.328,25.288 C115.013332,25.4906677 114.765334,25.7359986 114.584,26.024 C114.402666,26.3120014 114.312,26.6319982 114.312,26.984 L114.312,27.592 C114.312,27.9440018 114.402666,28.2639986 114.584,28.552 C114.765334,28.8400014 115.013332,29.0853323 115.328,29.288 C115.642668,29.4906677 116.005331,29.6453328 116.416,29.752 C116.826669,29.8586672 117.261331,29.912 117.72,29.912 C118.178669,29.912 118.613331,29.8586672 119.024,29.752 C119.434669,29.6453328 119.797332,29.4906677 120.112,29.288 C120.426668,29.0853323 120.674666,28.8400014 120.856,28.552 C121.037334,28.2639986 121.128,27.9440018 121.128,27.592 L121.128,26.984 C121.128,26.6319982 121.037334,26.3120014 120.856,26.024 C120.674666,25.7359986 120.426668,25.4906677 120.112,25.288 C119.797332,25.0853323 119.434669,24.9306672 119.024,24.824 C118.613331,24.7173328 118.178669,24.664 117.72,24.664 Z M136.888,26.632 L129.048,26.632 L129.048,27.688 L137.048,27.688 L137.048,29.032 L133.08,29.032 L133.08,30.28 L139.048,30.28 L139.048,31.592 L125.512,31.592 L125.512,30.28 L131.48,30.28 L131.48,29.032 L127.496,29.032 L127.496,22.952 L136.968,22.952 L136.968,24.296 L129.048,24.296 L129.048,25.336 L136.888,25.336 L136.888,26.632 Z M127.256,32.68 L137.16,32.68 L137.16,37.416 L135.576,37.416 L135.576,34.024 L127.256,34.024 L127.256,32.68 Z M150.84,31.672 C151.49067,31.672 152.095997,31.7333327 152.656,31.856 C153.216003,31.9786673 153.703998,32.1573322 154.12,32.392 C154.536002,32.6266678 154.861332,32.9093317 155.096,33.24 C155.330668,33.5706683 155.448,33.9493312 155.448,34.376 L155.448,34.952 C155.448,35.3786688 155.330668,35.7599983 155.096,36.096 C154.861332,36.4320017 154.536002,36.7146655 154.12,36.944 C153.703998,37.1733345 153.216003,37.3493327 152.656,37.472 C152.095997,37.5946673 151.49067,37.656 150.84,37.656 C150.18933,37.656 149.584003,37.5946673 149.024,37.472 C148.463997,37.3493327 147.976002,37.1733345 147.56,36.944 C147.143998,36.7146655 146.818668,36.4320017 146.584,36.096 C146.349332,35.7599983 146.232,35.3786688 146.232,34.952 L146.232,34.376 C146.232,33.9493312 146.349332,33.5706683 146.584,33.24 C146.818668,32.9093317 147.143998,32.6266678 147.56,32.392 C147.976002,32.1573322 148.463997,31.9786673 149.024,31.856 C149.584003,31.7333327 150.18933,31.672 150.84,31.672 Z M157.608,29.272 L157.608,30.616 L144.072,30.616 L144.072,29.272 L149.224,29.272 L149.224,26.376 L150.824,26.376 L150.824,29.272 L157.608,29.272 Z M145.848,23.08 L155.592,23.08 L155.592,24.952 C155.592,25.1226675 155.584,25.3439986 155.568,25.616 C155.552,25.8880014 155.528,26.1786651 155.496,26.488 C155.464,26.7973349 155.421334,27.114665 155.368,27.44 C155.314666,27.765335 155.256,28.0719986 155.192,28.36 L153.624,28.184 C153.762667,27.575997 153.858666,26.9973361 153.912,26.448 C153.965334,25.8986639 153.992,25.4053355 153.992,24.968 L153.992,24.424 L145.848,24.424 L145.848,23.08 Z M150.84,36.36 C151.266669,36.36 151.663998,36.3200004 152.032,36.24 C152.400002,36.1599996 152.719999,36.053334 152.992,35.92 C153.264001,35.786666 153.479999,35.6293342 153.64,35.448 C153.800001,35.2666658 153.88,35.0693344 153.88,34.856 L153.88,34.472 C153.88,34.2693323 153.800001,34.0746676 153.64,33.888 C153.479999,33.7013324 153.264001,33.541334 152.992,33.408 C152.719999,33.274666 152.400002,33.1680004 152.032,33.088 C151.663998,33.0079996 151.266669,32.968 150.84,32.968 C150.413331,32.968 150.016002,33.0079996 149.648,33.088 C149.279998,33.1680004 148.960001,33.274666 148.688,33.408 C148.415999,33.541334 148.200001,33.7013324 148.04,33.888 C147.879999,34.0746676 147.8,34.2693323 147.8,34.472 L147.8,34.856 C147.8,35.0693344 147.879999,35.2666658 148.04,35.448 C148.200001,35.6293342 148.415999,35.786666 148.688,35.92 C148.960001,36.053334 149.279998,36.1599996 149.648,36.24 C150.016002,36.3200004 150.413331,36.36 150.84,36.36 Z M165.4,22.776 C166.14667,22.776 166.826664,22.8533326 167.44,23.008 C168.053336,23.1626674 168.575998,23.3786653 169.008,23.656 C169.440002,23.9333347 169.773332,24.2666647 170.008,24.656 C170.242668,25.0453353 170.36,25.4746643 170.36,25.944 L170.36,26.52 C170.36,26.9893357 170.242668,27.4186647 170.008,27.808 C169.773332,28.1973353 169.440002,28.5306653 169.008,28.808 C168.575998,29.0853347 168.053336,29.3013326 167.44,29.456 C166.826664,29.6106674 166.14667,29.688 165.4,29.688 C164.642663,29.688 163.960003,29.6106674 163.352,29.456 C162.743997,29.3013326 162.224002,29.0853347 161.792,28.808 C161.359998,28.5306653 161.026668,28.1973353 160.792,27.808 C160.557332,27.4186647 160.44,26.9893357 160.44,26.52 L160.44,25.944 C160.44,25.4746643 160.557332,25.0453353 160.792,24.656 C161.026668,24.2666647 161.359998,23.9333347 161.792,23.656 C162.224002,23.3786653 162.743997,23.1626674 163.352,23.008 C163.960003,22.8533326 164.642663,22.776 165.4,22.776 Z M167.176,37.208 L167.176,32.392 L163.624,32.392 L163.624,37.208 L162.04,37.208 L162.04,32.392 L158.632,32.392 L158.632,31.048 L172.168,31.048 L172.168,32.392 L168.76,32.392 L168.76,37.208 L167.176,37.208 Z M165.4,28.312 C165.912003,28.312 166.378665,28.2666671 166.8,28.176 C167.221335,28.0853329 167.578665,27.9600008 167.872,27.8 C168.165335,27.6399992 168.394666,27.4480011 168.56,27.224 C168.725334,26.9999989 168.808,26.754668 168.808,26.488 L168.808,25.976 C168.808,25.709332 168.725334,25.4640011 168.56,25.24 C168.394666,25.0159989 168.165335,24.8240008 167.872,24.664 C167.578665,24.5039992 167.221335,24.3786671 166.8,24.288 C166.378665,24.1973329 165.912003,24.152 165.4,24.152 C164.887997,24.152 164.421335,24.1973329 164,24.288 C163.578665,24.3786671 163.221335,24.5039992 162.928,24.664 C162.634665,24.8240008 162.405334,25.0159989 162.24,25.24 C162.074666,25.4640011 161.992,25.709332 161.992,25.976 L161.992,26.488 C161.992,26.754668 162.074666,26.9999989 162.24,27.224 C162.405334,27.4480011 162.634665,27.6399992 162.928,27.8 C163.221335,27.9600008 163.578665,28.0853329 164,28.176 C164.421335,28.2666671 164.887997,28.312 165.4,28.312 Z" id="카카오톡-공유" fill="#4E1313"></path>
                        <rect id="Rectangle-4" x="0" y="0" width="60" height="60"></rect>
                        <g id="Page-1" transform="translate(16.000000, 17.000000)">
                            <mask id="mask-2" fill="white">
                                <use xlink:href="#path-1"></use>
                            </mask>
                            <g id="Clip-2"></g>
                            <path d="M14.5,0 C6.49194,0 0,5.20107418 0,11.6168197 C0,15.7927853 2.75065,19.4535516 6.87909,21.5011237 C6.57575,22.648199 5.78086,25.6576921 5.62223,26.3016179 C5.42503,27.1007206 5.9102,27.0904342 6.22891,26.8753025 C6.47802,26.7069002 10.20162,24.1408959 11.8088,23.0334964 C12.68112,23.164574 13.58041,23.2339334 14.5,23.2339334 C22.50806,23.2339334 29,18.0328592 29,11.6168197 C29,5.20107418 22.50806,0 14.5,0" id="Fill-1" fill="#381E1F" mask="url(#mask-2)"></path>
                        </g>
                        <path d="M61,15 L61,45" id="Line-2" stroke="#4E1313" opacity="0.3" stroke-linecap="square"></path>
                    </g>
                </g>
            </g>
        </g>
    </g>
</svg>