<?xml version="1.0" encoding="utf-8"?>
<!-- Generator: Adobe Illustrator 17.0.0, SVG Export Plug-In . SVG Version: 6.00 Build 0)  -->
<!DOCTYPE svg PUBLIC "-//W3C//DTD SVG 1.1//EN" "http://www.w3.org/Graphics/SVG/1.1/DTD/svg11.dtd">
<svg version="1.1" id="Layer_1" xmlns="http://www.w3.org/2000/svg" xmlns:xlink="http://www.w3.org/1999/xlink" x="0px" y="0px"
	 width="40px" height="40px" viewBox="0 0 40 40" enable-background="new 0 0 40 40" xml:space="preserve">
<title>Group 10</title>
<desc>Created with Sketch.</desc>
<g id="v3">
	<g id="Post-_x3E_-detail" transform="translate(-20.000000, -15.000000)">
		<g id="Group-5">
			<g id="Group-4" transform="translate(20.000000, 15.000000)">
				<g id="Group-10">
					<path id="Rectangle-2" fill="#FF2570" d="M4,0h32c2.209,0,4,1.791,4,4v32c0,2.209-1.791,4-4,4H4c-2.209,0-4-1.791-4-4V4
						C0,1.791,1.791,0,4,0z"/>
					<g enable-background="new    ">
						<path fill="#FFFFFF" d="M15.353,14.271v3.433h4.368v3.433h-4.368V28H11.92V10.839h8.569v3.432H15.353z"/>
						<path fill="#FFFFFF" d="M20.943,24.567h3.289c0.984,0,1.729-0.768,1.729-1.728V10.839h3.479V22.84
							c0,3.504-1.728,5.16-5.112,5.16h-3.385V24.567z"/>
					</g>
				</g>
			</g>
		</g>
	</g>
</g>
</svg>
