<?xml version="1.0" encoding="UTF-8"?>
<svg width="200px" height="60px" viewBox="0 0 200 60" version="1.1" xmlns="http://www.w3.org/2000/svg" xmlns:xlink="http://www.w3.org/1999/xlink">
    <!-- Generator: Sketch 47.1 (45422) - http://www.bohemiancoding.com/sketch -->
    <title>facebook</title>
    <desc>Created with Sketch.</desc>
    <defs></defs>
    <g id="v3" stroke="none" stroke-width="1" fill="none" fill-rule="evenodd">
        <g id="#2-Job-page_POP" transform="translate(-390.000000, -426.000000)">
            <g id="Group-10" transform="translate(320.000000, 247.000000)">
                <g id="Group-9" transform="translate(70.000000, 179.000000)">
                    <g id="facebook">
                        <rect id="Rectangle-3" fill="#4E66AC" x="0" y="0" width="200" height="60" rx="4"></rect>
                        <path d="M84.412,33.24 L84.412,31.944 L85.804,31.944 L85.804,25.24 L84.428,25.24 L84.428,23.944 L91.836,23.944 L91.836,25.24 L90.508,25.24 L90.508,31.88 L91.276,31.816 C91.5320013,31.7946666 91.7879987,31.7626669 92.044,31.72 L92.172,32.984 C91.4999966,33.0693338 90.8040036,33.1333331 90.084,33.176 C89.3639964,33.2186669 88.6093373,33.24 87.82,33.24 L84.412,33.24 Z M93.036,22.792 L94.572,22.792 L94.572,36.536 L93.036,36.536 L93.036,29.144 L91.276,29.144 L91.276,27.752 L93.036,27.752 L93.036,22.792 Z M97.308,37.24 L95.772,37.24 L95.772,22.488 L97.308,22.488 L97.308,37.24 Z M87.34,31.944 L88.972,31.944 L88.972,25.24 L87.34,25.24 L87.34,31.944 Z M109.532,37.24 L109.532,22.488 L111.116,22.488 L111.116,37.24 L109.532,37.24 Z M103.356,23.48 C103.900003,23.48 104.398664,23.5706658 104.852,23.752 C105.305336,23.9333342 105.697332,24.2053315 106.028,24.568 C106.358668,24.9306685 106.617332,25.378664 106.804,25.912 C106.990668,26.445336 107.084,27.0639965 107.084,27.768 L107.084,29.432 C107.084,30.1360035 106.990668,30.754664 106.804,31.288 C106.617332,31.821336 106.358668,32.2666649 106.028,32.624 C105.697332,32.9813351 105.305336,33.2506658 104.852,33.432 C104.398664,33.6133342 103.900003,33.704 103.356,33.704 C102.811997,33.704 102.313336,33.6133342 101.86,33.432 C101.406664,33.2506658 101.014668,32.9813351 100.684,32.624 C100.353332,32.2666649 100.094668,31.821336 99.908,31.288 C99.7213324,30.754664 99.628,30.1360035 99.628,29.432 L99.628,27.768 C99.628,27.0639965 99.7213324,26.4426694 99.908,25.904 C100.094668,25.3653306 100.353332,24.9173351 100.684,24.56 C101.014668,24.2026649 101.406664,23.9333342 101.86,23.752 C102.313336,23.5706658 102.811997,23.48 103.356,23.48 Z M103.356,32.28 C103.644001,32.28 103.921332,32.2266672 104.188,32.12 C104.454668,32.0133328 104.689332,31.8373346 104.892,31.592 C105.094668,31.3466654 105.257333,31.0293353 105.38,30.64 C105.502667,30.2506647 105.564,29.7733362 105.564,29.208 L105.564,27.992 C105.564,27.4266638 105.502667,26.9493353 105.38,26.56 C105.257333,26.1706647 105.092001,25.8533346 104.884,25.608 C104.675999,25.3626654 104.441335,25.1866672 104.18,25.08 C103.918665,24.9733328 103.644001,24.92 103.356,24.92 C103.067999,24.92 102.790668,24.9733328 102.524,25.08 C102.257332,25.1866672 102.022668,25.3626654 101.82,25.608 C101.617332,25.8533346 101.454667,26.1706647 101.332,26.56 C101.209333,26.9493353 101.148,27.4266638 101.148,27.992 L101.148,29.208 C101.148,29.7733362 101.209333,30.2506647 101.332,30.64 C101.454667,31.0293353 101.617332,31.3466654 101.82,31.592 C102.022668,31.8373346 102.257332,32.0133328 102.524,32.12 C102.790668,32.2266672 103.067999,32.28 103.356,32.28 Z M126.988,33.928 L126.988,35.272 L113.452,35.272 L113.452,33.928 L126.988,33.928 Z M120.22,28.072 C120.134666,28.2533342 119.934668,28.4826653 119.62,28.76 C119.305332,29.0373347 118.876003,29.346665 118.332,29.688 C117.862664,29.9866682 117.366669,30.2933318 116.844,30.608 C116.321331,30.9226682 115.724003,31.2666648 115.052,31.64 L114.268,30.392 C114.908003,30.0399982 115.494664,29.7093349 116.028,29.4 C116.561336,29.0906651 117.094664,28.7546685 117.628,28.392 C117.990668,28.1466654 118.289332,27.9120011 118.524,27.688 C118.758668,27.4639989 118.942666,27.2293346 119.076,26.984 C119.209334,26.7386654 119.3,26.4693348 119.348,26.176 C119.396,25.8826652 119.42,25.5386686 119.42,25.144 L119.42,23.528 L121.02,23.528 L121.02,25.144 C121.02,25.5386686 121.041333,25.8826652 121.084,26.176 C121.126667,26.4693348 121.217333,26.7413321 121.356,26.992 C121.494667,27.2426679 121.691999,27.4853322 121.948,27.72 C122.204001,27.9546678 122.550664,28.2159986 122.988,28.504 C123.489336,28.8346683 123.990664,29.1439986 124.492,29.432 C124.993336,29.7200014 125.558664,30.034665 126.188,30.376 L125.42,31.608 C124.822664,31.266665 124.241336,30.933335 123.676,30.608 C123.110664,30.282665 122.588002,29.9653349 122.108,29.656 C121.585331,29.3253317 121.164002,29.0240014 120.844,28.752 C120.523998,28.4799986 120.321334,28.2533342 120.236,28.072 L120.22,28.072 Z M139.596,28.472 L129.948,28.472 L129.948,22.808 L131.516,22.808 L131.516,24.504 L138.028,24.504 L138.028,22.792 L139.596,22.792 L139.596,28.472 Z M129.756,32.584 L133.98,32.584 L133.98,31.016 L128.012,31.016 L128.012,29.672 L141.548,29.672 L141.548,31.016 L135.58,31.016 L135.58,32.584 L139.66,32.584 L139.66,37.384 L138.076,37.384 L138.076,33.928 L129.756,33.928 L129.756,32.584 Z M131.516,27.144 L138.028,27.144 L138.028,25.784 L131.516,25.784 L131.516,27.144 Z M153.34,31.672 C153.99067,31.672 154.595997,31.7333327 155.156,31.856 C155.716003,31.9786673 156.203998,32.1573322 156.62,32.392 C157.036002,32.6266678 157.361332,32.9093317 157.596,33.24 C157.830668,33.5706683 157.948,33.9493312 157.948,34.376 L157.948,34.952 C157.948,35.3786688 157.830668,35.7599983 157.596,36.096 C157.361332,36.4320017 157.036002,36.7146655 156.62,36.944 C156.203998,37.1733345 155.716003,37.3493327 155.156,37.472 C154.595997,37.5946673 153.99067,37.656 153.34,37.656 C152.68933,37.656 152.084003,37.5946673 151.524,37.472 C150.963997,37.3493327 150.476002,37.1733345 150.06,36.944 C149.643998,36.7146655 149.318668,36.4320017 149.084,36.096 C148.849332,35.7599983 148.732,35.3786688 148.732,34.952 L148.732,34.376 C148.732,33.9493312 148.849332,33.5706683 149.084,33.24 C149.318668,32.9093317 149.643998,32.6266678 150.06,32.392 C150.476002,32.1573322 150.963997,31.9786673 151.524,31.856 C152.084003,31.7333327 152.68933,31.672 153.34,31.672 Z M160.108,29.272 L160.108,30.616 L146.572,30.616 L146.572,29.272 L151.724,29.272 L151.724,26.376 L153.324,26.376 L153.324,29.272 L160.108,29.272 Z M148.348,23.08 L158.092,23.08 L158.092,24.952 C158.092,25.1226675 158.084,25.3439986 158.068,25.616 C158.052,25.8880014 158.028,26.1786651 157.996,26.488 C157.964,26.7973349 157.921334,27.114665 157.868,27.44 C157.814666,27.765335 157.756,28.0719986 157.692,28.36 L156.124,28.184 C156.262667,27.575997 156.358666,26.9973361 156.412,26.448 C156.465334,25.8986639 156.492,25.4053355 156.492,24.968 L156.492,24.424 L148.348,24.424 L148.348,23.08 Z M153.34,36.36 C153.766669,36.36 154.163998,36.3200004 154.532,36.24 C154.900002,36.1599996 155.219999,36.053334 155.492,35.92 C155.764001,35.786666 155.979999,35.6293342 156.14,35.448 C156.300001,35.2666658 156.38,35.0693344 156.38,34.856 L156.38,34.472 C156.38,34.2693323 156.300001,34.0746676 156.14,33.888 C155.979999,33.7013324 155.764001,33.541334 155.492,33.408 C155.219999,33.274666 154.900002,33.1680004 154.532,33.088 C154.163998,33.0079996 153.766669,32.968 153.34,32.968 C152.913331,32.968 152.516002,33.0079996 152.148,33.088 C151.779998,33.1680004 151.460001,33.274666 151.188,33.408 C150.915999,33.541334 150.700001,33.7013324 150.54,33.888 C150.379999,34.0746676 150.3,34.2693323 150.3,34.472 L150.3,34.856 C150.3,35.0693344 150.379999,35.2666658 150.54,35.448 C150.700001,35.6293342 150.915999,35.786666 151.188,35.92 C151.460001,36.053334 151.779998,36.1599996 152.148,36.24 C152.516002,36.3200004 152.913331,36.36 153.34,36.36 Z M167.9,22.776 C168.64667,22.776 169.326664,22.8533326 169.94,23.008 C170.553336,23.1626674 171.075998,23.3786653 171.508,23.656 C171.940002,23.9333347 172.273332,24.2666647 172.508,24.656 C172.742668,25.0453353 172.86,25.4746643 172.86,25.944 L172.86,26.52 C172.86,26.9893357 172.742668,27.4186647 172.508,27.808 C172.273332,28.1973353 171.940002,28.5306653 171.508,28.808 C171.075998,29.0853347 170.553336,29.3013326 169.94,29.456 C169.326664,29.6106674 168.64667,29.688 167.9,29.688 C167.142663,29.688 166.460003,29.6106674 165.852,29.456 C165.243997,29.3013326 164.724002,29.0853347 164.292,28.808 C163.859998,28.5306653 163.526668,28.1973353 163.292,27.808 C163.057332,27.4186647 162.94,26.9893357 162.94,26.52 L162.94,25.944 C162.94,25.4746643 163.057332,25.0453353 163.292,24.656 C163.526668,24.2666647 163.859998,23.9333347 164.292,23.656 C164.724002,23.3786653 165.243997,23.1626674 165.852,23.008 C166.460003,22.8533326 167.142663,22.776 167.9,22.776 Z M169.676,37.208 L169.676,32.392 L166.124,32.392 L166.124,37.208 L164.54,37.208 L164.54,32.392 L161.132,32.392 L161.132,31.048 L174.668,31.048 L174.668,32.392 L171.26,32.392 L171.26,37.208 L169.676,37.208 Z M167.9,28.312 C168.412003,28.312 168.878665,28.2666671 169.3,28.176 C169.721335,28.0853329 170.078665,27.9600008 170.372,27.8 C170.665335,27.6399992 170.894666,27.4480011 171.06,27.224 C171.225334,26.9999989 171.308,26.754668 171.308,26.488 L171.308,25.976 C171.308,25.709332 171.225334,25.4640011 171.06,25.24 C170.894666,25.0159989 170.665335,24.8240008 170.372,24.664 C170.078665,24.5039992 169.721335,24.3786671 169.3,24.288 C168.878665,24.1973329 168.412003,24.152 167.9,24.152 C167.387997,24.152 166.921335,24.1973329 166.5,24.288 C166.078665,24.3786671 165.721335,24.5039992 165.428,24.664 C165.134665,24.8240008 164.905334,25.0159989 164.74,25.24 C164.574666,25.4640011 164.492,25.709332 164.492,25.976 L164.492,26.488 C164.492,26.754668 164.574666,26.9999989 164.74,27.224 C164.905334,27.4480011 165.134665,27.6399992 165.428,27.8 C165.721335,27.9600008 166.078665,28.0853329 166.5,28.176 C166.921335,28.2666671 167.387997,28.312 167.9,28.312 Z" id="페이스북-공유" fill="#FFFFFF"></path>
                        <path d="M26.4,27.68 L26.4,44.56 L32.08,44.56 L32.08,27.68 L36,27.68 L36,23.88 L32.08,23.88 L32.08,22.64 C32.08,21.7866624 32.246665,21.1800018 32.58,20.82 C32.913335,20.4599982 33.4666628,20.28 34.24,20.28 C34.9600036,20.28 35.65333,20.3199996 36.32,20.4 L36.32,16.16 C35.8399976,16.1333332 35.3466692,16.1000002 34.84,16.06 C34.3333308,16.0199998 33.8266692,16 33.32,16 C30.9999884,16 29.2666724,16.5866608 28.12,17.76 C26.9733276,18.9333392 26.4,20.4399908 26.4,22.28 L26.4,23.88 L23,23.88 L23,27.68 L26.4,27.68 Z" id="f" fill="#FFFFFF"></path>
                        <rect id="Rectangle-4" x="0" y="0" width="60" height="60"></rect>
                        <path d="M61,15 L61,45" id="Line-2" stroke="#FFFFFF" opacity="0.3" stroke-linecap="square"></path>
                    </g>
                </g>
            </g>
        </g>
    </g>
</svg>