<?xml version="1.0" encoding="UTF-8"?>
<svg width="60px" height="58px" viewBox="0 0 60 58" version="1.1" xmlns="http://www.w3.org/2000/svg" xmlns:xlink="http://www.w3.org/1999/xlink">
    <!-- Generator: Sketch 47.1 (45422) - http://www.bohemiancoding.com/sketch -->
    <title>volunteer-charity-grow-love</title>
    <desc>Created with Sketch.</desc>
    <defs></defs>
    <g id="v3" stroke="none" stroke-width="1" fill="none" fill-rule="evenodd">
        <g id="Post-&gt;-detail" transform="translate(-69.000000, -1156.000000)" fill-rule="nonzero" fill="#000000">
            <g id="volunteer-charity-grow-love" transform="translate(69.000000, 1156.000000)">
                <path d="M58.835,39.195 C58.097,38.572 57.122,38.311 56.172,38.476 L37,41.811 L37,34.967 C38.478,34.877 41.199,34.45 43.076,32.574 C45.706,29.946 45.5,25.63 45.489,25.448 C45.462,24.938 45.055,24.532 44.546,24.505 C44.365,24.489 40.047,24.289 37.42,26.917 C37.27,27.067 37.132,27.224 37,27.383 L37,23.974 C38.478,23.884 41.199,23.457 43.076,21.581 C45.706,18.953 45.5,14.637 45.489,14.455 C45.462,13.945 45.055,13.539 44.546,13.512 C44.365,13.498 40.047,13.296 37.42,15.925 C37.27,16.075 37.132,16.232 37,16.391 L37,13.421 L42.612,7.925 C43.507,7.049 44,5.881 44,4.639 C44,3.396 43.507,2.228 42.612,1.352 C42.612,1.351 42.611,1.351 42.611,1.351 C40.791,-0.431 37.838,-0.444 36,1.31 C34.161,-0.445 31.209,-0.431 29.388,1.352 C28.493,2.228 28,3.396 28,4.639 C28,5.881 28.493,7.049 29.389,7.926 L35,13.42 L35,16.39 C34.868,16.23 34.73,16.074 34.58,15.924 C31.953,13.294 27.635,13.497 27.454,13.511 C26.944,13.538 26.538,13.945 26.511,14.454 C26.5,14.636 26.294,18.952 28.924,21.58 C30.801,23.458 33.522,23.884 35,23.973 L35,27.382 C34.868,27.222 34.73,27.065 34.58,26.916 C31.952,24.288 27.637,24.489 27.454,24.504 C26.944,24.531 26.538,24.938 26.511,25.447 C26.5,25.629 26.294,29.945 28.924,32.573 C30.801,34.451 33.522,34.877 35,34.966 L35,40.585 L30.707,36.292 C30.52,36.105 30.266,36 30,36 L20,36 C20,35.447 19.553,35 19,35 L15,35 L0,35 L0,37 L14,37 L14,51 L0,51 L0,53 L15,53 L19,53 C19.553,53 20,52.553 20,52 L22.764,52 L33.455,57.346 C33.917,57.577 34.418,57.693 34.917,57.693 C35.486,57.693 36.054,57.544 36.563,57.247 L58.379,44.52 C59.379,43.937 60,42.856 60,41.698 C60,40.73 59.575,39.818 58.835,39.195 Z M38.834,28.33 C40.182,26.982 42.258,26.62 43.469,26.527 C43.378,27.735 43.018,29.803 41.662,31.159 C40.314,32.507 38.238,32.869 37.028,32.962 C37.119,31.754 37.479,29.686 38.834,28.33 Z M38.834,17.338 C40.182,15.989 42.258,15.627 43.469,15.534 C43.378,16.742 43.018,18.81 41.662,20.166 C40.315,21.513 38.242,21.875 37.031,21.969 C37.125,20.758 37.487,18.685 38.834,17.338 Z M30.338,20.166 C28.989,18.818 28.627,16.742 28.534,15.531 C29.742,15.622 31.81,15.982 33.166,17.338 C34.513,18.685 34.875,20.758 34.969,21.969 C33.758,21.875 31.685,21.513 30.338,20.166 Z M30.338,31.159 C28.989,29.811 28.627,27.734 28.534,26.524 C29.742,26.615 31.81,26.974 33.166,28.33 C34.513,29.678 34.875,31.751 34.969,32.962 C33.758,32.868 31.685,32.506 30.338,31.159 Z M18,51 L16,51 L16,37 L18,37 L18,51 Z M30,4.639 C30,3.938 30.28,3.278 30.787,2.781 C31.319,2.26 32.017,2 32.716,2 C33.413,2 34.112,2.261 34.644,2.781 L35.301,3.425 C35.69,3.806 36.311,3.806 36.699,3.425 L37.356,2.781 C38.419,1.741 40.148,1.741 41.211,2.78 C41.72,3.277 42,3.938 42,4.639 C42,5.339 41.72,5.999 41.213,6.496 L36,11.601 L30.788,6.497 C30.28,5.999 30,5.339 30,4.639 Z M57.371,42.792 L35.556,55.519 C35.186,55.736 34.735,55.749 34.35,55.557 L23.448,50.106 C23.309,50.036 23.155,50 23,50 L20,50 L20,38 L29.586,38 L37.465,45.879 C37.805,46.219 38,46.69 38,47.172 C38,48.18 37.18,49 36.172,49 C35.691,49 35.219,48.805 34.879,48.465 L29.707,43.293 L28.293,44.707 L33.465,49.879 C34.188,50.602 35.149,51 36.172,51 C38.282,51 40,49.282 40,47.172 C40,46.15 39.602,45.188 38.879,44.465 L38.069,43.655 L56.513,40.447 C56.885,40.38 57.26,40.484 57.547,40.726 C57.835,40.968 58,41.322 58,41.697 C58,42.146 57.759,42.566 57.371,42.792 Z" id="Shape"></path>
                <path d="M19,11 L21,11 C21,9.346 22.346,8 24,8 L24,6 C22.346,6 21,4.654 21,3 L19,3 C19,4.654 17.654,6 16,6 L16,8 C17.654,8 19,9.346 19,11 Z M20,5.969 C20.292,6.362 20.638,6.708 21.031,7 C20.638,7.292 20.292,7.638 20,8.031 C19.708,7.638 19.362,7.292 18.969,7 C19.362,6.708 19.708,6.362 20,5.969 Z" id="Shape"></path>
                <path d="M13,20 L15,20 C15,18.346 16.346,17 18,17 L18,15 C16.346,15 15,13.654 15,12 L13,12 C13,13.654 11.654,15 10,15 L10,17 C11.654,17 13,18.346 13,20 Z M14,14.969 C14.292,15.362 14.638,15.708 15.031,16 C14.638,16.292 14.292,16.638 14,17.031 C13.708,16.638 13.362,16.292 12.969,16 C13.362,15.708 13.708,15.362 14,14.969 Z" id="Shape"></path>
                <path d="M51,15 L53,15 C53,13.346 54.346,12 56,12 L56,10 C54.346,10 53,8.654 53,7 L51,7 C51,8.654 49.654,10 48,10 L48,12 C49.654,12 51,13.346 51,15 Z M52,9.969 C52.292,10.362 52.638,10.708 53.031,11 C52.638,11.292 52.292,11.638 52,12.031 C51.708,11.638 51.362,11.292 50.969,11 C51.362,10.708 51.708,10.362 52,9.969 Z" id="Shape"></path>
                <rect id="Rectangle-path" x="18" y="31" width="2" height="2"></rect>
                <rect id="Rectangle-path" x="14" y="31" width="2" height="2"></rect>
                <rect id="Rectangle-path" x="10" y="31" width="2" height="2"></rect>
            </g>
        </g>
    </g>
</svg>