<?xml version="1.0" encoding="utf-8"?>
<!-- Generator: Adobe Illustrator 17.0.0, SVG Export Plug-In . SVG Version: 6.00 Build 0)  -->
<!DOCTYPE svg PUBLIC "-//W3C//DTD SVG 1.1//EN" "http://www.w3.org/Graphics/SVG/1.1/DTD/svg11.dtd">
<svg version="1.1" id="Layer_1" xmlns="http://www.w3.org/2000/svg" xmlns:xlink="http://www.w3.org/1999/xlink" x="0px" y="0px"
	 width="77.997px" height="10.323px" viewBox="0.121 0.817 77.997 10.323" enable-background="new 0.121 0.817 77.997 10.323"
	 xml:space="preserve">
<g id="v3">
	<g id="Post-_x3E_-detail" transform="translate(-71.000000, -29.000000)">
		<g id="Group-5">
			<g id="Group-4" transform="translate(20.000000, 15.000000)">
				<g enable-background="new    ">
					<path fill="#FFFFFF" d="M53.124,16.987v2.004h2.549v2.003h-2.549V25h-2.003V14.984h5v2.003H53.124z"/>
					<path fill="#FFFFFF" d="M57.715,21.512v-6.527h2.003v6.514c0,2.102,3.25,2.102,3.25,0v-6.514h1.989v6.527
						C64.957,26.275,57.715,26.275,57.715,21.512z"/>
					<path fill="#FFFFFF" d="M68.817,25v-8.013h-2.493v-1.988h6.99v1.988H70.82V25H68.817z"/>
					<path fill="#FFFFFF" d="M74.766,21.512v-6.527h2.003v6.514c0,2.102,3.25,2.102,3.25,0v-6.514h1.989v6.527
						C82.009,26.275,74.766,26.275,74.766,21.512z"/>
					<path fill="#FFFFFF" d="M89.203,25l-2.017-3.824h-0.967V25h-2.003V14.984h3.95c3.571,0,3.922,5.029,0.98,5.884L91.472,25
						H89.203z M86.219,19.229h1.765c1.359,0,1.359-2.241,0-2.241h-1.765V19.229z"/>
					<path fill="#FFFFFF" d="M92.798,25V14.984h5.015v2.003h-3.012v2.004h2.634v2.003h-2.634v2.003h3.18V25H92.798z"/>
					<path fill="#FFFFFF" d="M103.158,22.997h1.919c0.574,0,1.009-0.448,1.009-1.009v-7.004h2.03v7.004
						c0,2.045-1.008,3.012-2.983,3.012h-1.975V22.997z"/>
					<path fill="#FFFFFF" d="M115.158,14.817c6.893,0,6.893,10.323,0,10.323C108.266,25.14,108.266,14.817,115.158,14.817z
						 M115.158,16.876c-4.006,0-4.006,6.191,0,6.191C119.165,23.068,119.165,16.876,115.158,16.876z"/>
					<path fill="#FFFFFF" d="M122.198,14.971h3.964c1.779,0,2.886,1.274,2.844,3.039c-0.028,0.757-0.294,1.541-0.925,1.976
						c0.658,0.448,1.037,1.219,1.037,2.003c0,1.681-1.331,3.012-2.956,3.012h-3.964V14.971z M124.215,18.991h1.205h0.574
						c0.574,0,0.925-0.463,0.925-1.009c0-0.561-0.351-1.009-0.925-1.009h-1.779V18.991z M124.215,22.997h1.205h0.574
						c0.574,0,1.009-0.448,1.009-1.009s-0.435-0.994-1.009-0.994h-1.779V22.997z"/>
				</g>
			</g>
		</g>
	</g>
</g>
</svg>
