<?xml version="1.0" encoding="UTF-8"?>
<svg width="50px" height="50px" viewBox="0 0 50 50" version="1.1" xmlns="http://www.w3.org/2000/svg" xmlns:xlink="http://www.w3.org/1999/xlink">
    <!-- Generator: Sketch 47.1 (45422) - http://www.bohemiancoding.com/sketch -->
    <title>twitter</title>
    <desc>Created with Sketch.</desc>
    <defs></defs>
    <g id="v3" stroke="none" stroke-width="1" fill="none" fill-rule="evenodd">
        <g id="Post-&gt;-detail" transform="translate(-128.000000, -1429.000000)">
            <g id="Group-11" transform="translate(58.000000, 1429.000000)">
                <g id="twitter" transform="translate(70.000000, 0.000000)">
                    <rect id="Rectangle-3" fill="#1DA1F2" x="0" y="0" width="50" height="50" rx="4"></rect>
                    <rect id="Rectangle-4" x="0" y="0" width="50" height="50"></rect>
                    <path d="M19.5828336,36.18 C29.8820105,36.18 35.5142298,27.6475999 35.5142298,20.2486038 C35.5142298,20.0062536 35.5092936,19.7650023 35.4984229,19.5248408 C36.5917145,18.7344801 37.5419569,17.7481732 38.2914542,16.6253926 C37.2881865,17.0713362 36.2085405,17.371538 35.0759607,17.5069036 C36.2319851,16.8137011 37.1194947,15.71714 37.5382021,14.4099157 C36.4563581,15.0512652 35.2582981,15.5174023 33.9826691,15.7690663 C32.9609021,14.6807201 31.5062326,14 29.8955095,14 C26.8033754,14 24.295893,16.5075739 24.295893,19.5985175 C24.295893,20.0379039 24.345017,20.4652932 24.4410852,20.8752455 C19.7874068,20.6410825 15.6608675,18.4130041 12.8991569,15.0250639 C12.4182844,15.8525331 12.1410052,16.8137285 12.1410052,17.8393419 C12.1410052,19.7819539 13.1295284,21.496896 14.6327356,22.5001636 C13.7140886,22.4717809 12.8511227,22.2196058 12.0968633,21.7998636 C12.096039,21.8233559 12.096039,21.8462593 12.096039,21.8713671 C12.096039,24.5830746 14.0261044,26.8471352 16.5881689,27.3601708 C16.1176634,27.4884389 15.6226325,27.5572161 15.1117032,27.5572161 C14.751461,27.5572161 14.4004867,27.5217597 14.0593482,27.4562391 C14.7721949,29.6810115 16.8392835,31.2999769 19.2899857,31.3452178 C17.3735659,32.8473261 14.9594044,33.741979 12.3356144,33.741979 C11.8842126,33.741979 11.4382782,33.7163034 11,33.6644705 C13.4780849,35.2528479 16.420576,36.1796456 19.5831358,36.1796456" id="Shape" fill="#FFFFFF" fill-rule="nonzero"></path>
                </g>
            </g>
        </g>
    </g>
</svg>