<?xml version="1.0" encoding="UTF-8"?>
<svg width="60px" height="60px" viewBox="0 0 60 60" version="1.1" xmlns="http://www.w3.org/2000/svg" xmlns:xlink="http://www.w3.org/1999/xlink">
    <!-- Generator: Sketch 47.1 (45422) - http://www.bohemiancoding.com/sketch -->
    <title>learning-doing-hand-craft-brain</title>
    <desc>Created with Sketch.</desc>
    <defs></defs>
    <g id="v3" stroke="none" stroke-width="1" fill="none" fill-rule="evenodd">
        <g id="Post-&gt;-detail" transform="translate(-247.000000, -1155.000000)" fill-rule="nonzero" fill="#000000">
            <g id="learning-doing-hand-craft-brain" transform="translate(247.000000, 1155.000000)">
                <path d="M41,30 L41,25 L42,25 C44.206,25 46,23.206 46,21 C46,19.139 44.723,17.57 42.998,17.126 C42.999,17.084 43,17.042 43,17 C43,14.752 41.097,12.917 38.874,13.002 C38.43,11.277 36.861,10 35,10 C34.514,10 34.036,10.09 33.588,10.262 C32.938,8.92 31.564,8 30,8 C28.436,8 27.062,8.92 26.412,10.262 C25.964,10.09 25.486,10 25,10 C23.139,10 21.57,11.277 21.126,13.002 C18.878,12.917 17,14.752 17,17 C17,17.042 17.001,17.084 17.002,17.126 C15.277,17.57 14,19.139 14,21 C14,23.206 15.794,25 18,25 L33.08,25 C33.568,28.386 36.481,31 40,31 C40.553,31 41,30.553 41,30 Z M16,21 C16,19.897 16.896,19.001 17.974,19.001 L17.975,19.001 C17.996,19.004 18.092,19.015 18.113,19.017 C18.462,19.046 18.781,18.895 18.986,18.625 C19.192,18.354 19.246,17.998 19.131,17.679 C19.042,17.438 19,17.217 19,17 C19,15.897 19.897,15 21,15 C21.217,15 21.438,15.042 21.679,15.13 C21.996,15.245 22.355,15.192 22.625,14.985 C22.895,14.78 23.043,14.451 23.017,14.112 C23.015,14.092 23.003,14.021 23,14 C23,12.897 23.897,12 25,12 C25.492,12 25.97,12.189 26.345,12.532 C26.628,12.793 27.035,12.866 27.392,12.724 C27.748,12.581 27.993,12.247 28.019,11.864 C28.09,10.819 28.961,10 30,10 C31.039,10 31.91,10.819 31.981,11.864 C32.007,12.248 32.252,12.582 32.608,12.724 C32.963,12.866 33.372,12.792 33.655,12.532 C34.03,12.189 34.508,12 35,12 C36.103,12 37,12.897 36.999,13.975 C36.996,13.996 36.985,14.092 36.983,14.113 C36.957,14.452 37.105,14.781 37.375,14.986 C37.646,15.193 38.004,15.246 38.321,15.131 C38.562,15.042 38.783,15 39,15 C40.103,15 41,15.897 41,17 C41,17.217 40.958,17.438 40.87,17.679 C40.755,17.998 40.808,18.355 41.015,18.625 C41.22,18.895 41.54,19.046 41.888,19.017 C41.898,19.016 41.987,19.005 42.028,19 C43.117,19.015 44,19.906 44,21 C44,22.103 43.103,23 42,23 L40,23 L34,23 L18,23 C16.897,23 16,22.103 16,21 Z M39,28.899 C37.044,28.501 35.499,26.956 35.101,25 L39,25 L39,28.899 Z" id="Shape"></path>
                <path d="M7,29.586 L7,17.5 C7,15.57 5.43,14 3.5,14 C1.57,14 0,15.57 0,17.5 L0,39.5 C0,39.724 0.075,39.94 0.213,40.116 L9,51.345 L9,59 C9,59.553 9.447,60 10,60 L19,60 C19.553,60 20,59.553 20,59 L20,43 C20,42.734 19.895,42.48 19.707,42.293 L7,29.586 Z M18,58 L11,58 L11,51 C11,50.776 10.925,50.56 10.787,50.384 L2,39.155 L2,17.5 C2,16.673 2.673,16 3.5,16 C4.327,16 5,16.673 5,17.5 L5,30 C5,30.266 5.105,30.52 5.293,30.707 L6.742,32.157 C5.159,32.626 4,34.095 4,35.828 C4,36.85 4.398,37.812 5.121,38.535 L11.293,44.707 L12.707,43.293 L6.535,37.121 C6.195,36.781 6,36.31 6,35.828 C6,34.82 6.82,34 7.828,34 C8.307,34 8.777,34.193 9.117,34.532 L18,43.414 L18,58 Z" id="Shape"></path>
                <path d="M56.5,14 C54.57,14 53,15.57 53,17.5 L53,29.586 L40.293,42.293 C40.105,42.48 40,42.734 40,43 L40,59 C40,59.553 40.447,60 41,60 L50,60 C50.553,60 51,59.553 51,59 L51,51.345 L59.787,40.116 C59.925,39.94 60,39.724 60,39.5 L60,17.5 C60,15.57 58.43,14 56.5,14 Z M58,39.155 L49.213,50.384 C49.075,50.56 49,50.776 49,51 L49,58 L42,58 L42,43.414 L50.883,34.532 C51.223,34.193 51.693,34 52.172,34 C53.18,34 54,34.82 54,35.828 C54,36.309 53.805,36.781 53.465,37.121 L47.293,43.293 L48.707,44.707 L54.879,38.535 C55.602,37.812 56,36.851 56,35.828 C56,34.095 54.841,32.626 53.258,32.157 L54.707,30.707 C54.895,30.52 55,30.266 55,30 L55,17.5 C55,16.673 55.673,16 56.5,16 C57.327,16 58,16.673 58,17.5 L58,39.155 Z" id="Shape"></path>
                <rect id="Rectangle-path" x="29" y="4" width="2" height="2"></rect>
                <rect id="Rectangle-path" x="29" y="0" width="2" height="2"></rect>
                <rect id="Rectangle-path" x="25" y="0" width="2" height="2"></rect>
                <rect id="Rectangle-path" x="33" y="0" width="2" height="2"></rect>
                <rect id="Rectangle-path" x="29" y="30" width="2" height="2"></rect>
                <rect id="Rectangle-path" x="29" y="34" width="2" height="2"></rect>
                <rect id="Rectangle-path" x="33" y="34" width="2" height="2"></rect>
                <rect id="Rectangle-path" x="25" y="34" width="2" height="2"></rect>
            </g>
        </g>
    </g>
</svg>