<?xml version="1.0" encoding="UTF-8"?>
<svg width="48px" height="60px" viewBox="0 0 48 60" version="1.1" xmlns="http://www.w3.org/2000/svg" xmlns:xlink="http://www.w3.org/1999/xlink">
    <!-- Generator: Sketch 47.1 (45422) - http://www.bohemiancoding.com/sketch -->
    <title>idea-innovation-flash-startup-learning</title>
    <desc>Created with Sketch.</desc>
    <defs></defs>
    <g id="v3" stroke="none" stroke-width="1" fill="none" fill-rule="evenodd">
        <g id="Post-&gt;-detail" transform="translate(-164.000000, -1154.000000)" fill-rule="nonzero" fill="#000000">
            <g id="idea-innovation-flash-startup-learning" transform="translate(164.000000, 1154.000000)">
                <path d="M24,4 C12.972,4 4,12.972 4,24 C4,32.377 9.194,39.812 17,42.725 L17,46.184 C15.839,46.598 15,47.698 15,49 C15,49.771 15.301,50.468 15.78,51 C15.3,51.532 15,52.229 15,53 C15,54.654 16.346,56 18,56 L18.586,56 L22.293,59.707 C22.48,59.895 22.735,60 23,60 L25,60 C25.265,60 25.52,59.895 25.707,59.707 L29.414,56 L30,56 C31.654,56 33,54.654 33,53 C33,52.229 32.699,51.532 32.22,51 C32.7,50.468 33,49.771 33,49 C33,47.698 32.161,46.598 31,46.184 L31,42.725 C38.806,39.812 44,32.377 44,24 C44,12.972 35.028,4 24,4 Z M18,48 L30,48 C30.551,48 31,48.449 31,49 C31,49.551 30.551,50 30,50 L18,50 C17.449,50 17,49.551 17,49 C17,48.449 17.449,48 18,48 Z M24.586,58 L23.414,58 L21.414,56 L26.586,56 L24.586,58 Z M30,54 L18,54 C17.449,54 17,53.551 17,53 C17,52.449 17.449,52 18,52 L30,52 C30.551,52 31,52.449 31,53 C31,53.551 30.551,54 30,54 Z M29.684,41.069 C29.275,41.205 29,41.587 29,42.018 L29,46 L19,46 L19,42.018 C19,41.587 18.725,41.205 18.316,41.069 C10.949,38.616 6,31.757 6,24 C6,14.075 14.075,6 24,6 C33.925,6 42,14.075 42,24 C42,31.757 37.051,38.616 29.684,41.069 Z" id="Shape"></path>
                <rect id="Rectangle-path" x="23" y="0" width="2" height="2"></rect>
                <rect id="Rectangle-path" x="46" y="23" width="2" height="2"></rect>
                <rect id="Rectangle-path" x="0" y="23" width="2" height="2"></rect>
                <rect id="Rectangle-path" transform="translate(40.263000, 7.737465) rotate(-45.000000) translate(-40.263000, -7.737465) " x="39.2630096" y="6.73747499" width="1.99998082" height="1.99998082"></rect>
                <rect id="Rectangle-path" transform="translate(7.736200, 40.264049) rotate(-45.000000) translate(-7.736200, -40.264049) " x="6.73620959" y="39.2640584" width="1.99998082" height="1.99998082"></rect>
                <rect id="Rectangle-path" transform="translate(40.262942, 40.262793) rotate(-45.000000) translate(-40.262942, -40.262793) " x="39.2629513" y="39.2628025" width="1.99998082" height="1.99998082"></rect>
                <rect id="Rectangle-path" transform="translate(7.736258, 7.735893) rotate(-45.000000) translate(-7.736258, -7.735893) " x="6.73626789" y="6.73590249" width="1.99998082" height="1.99998082"></rect>
                <path d="M33,23 L27,23 L27,13 C27,12.596 26.756,12.231 26.383,12.076 C26.008,11.92 25.579,12.006 25.293,12.293 L14.293,23.293 C14.007,23.579 13.921,24.009 14.076,24.383 C14.231,24.756 14.596,25 15,25 L21,25 L21,35 C21,35.404 21.244,35.769 21.617,35.924 C21.741,35.975 21.871,36 22,36 C22.26,36 22.516,35.898 22.707,35.707 L33.707,24.707 C33.993,24.421 34.079,23.991 33.924,23.617 C33.769,23.244 33.404,23 33,23 Z M23,32.586 L23,24 C23,23.448 22.552,23 22,23 L17.414,23 L25,15.414 L25,24 C25,24.552 25.448,25 26,25 L30.586,25 L23,32.586 Z" id="Shape"></path>
            </g>
        </g>
    </g>
</svg>