<?xml version="1.0" encoding="UTF-8"?>
<svg width="200px" height="60px" viewBox="0 0 200 60" version="1.1" xmlns="http://www.w3.org/2000/svg" xmlns:xlink="http://www.w3.org/1999/xlink">
    <!-- Generator: Sketch 47.1 (45422) - http://www.bohemiancoding.com/sketch -->
    <title>link</title>
    <desc>Created with Sketch.</desc>
    <defs>
        <polygon id="path-1" points="0 27 0 0 29 0 29 27"></polygon>
    </defs>
    <g id="v3" stroke="none" stroke-width="1" fill="none" fill-rule="evenodd">
        <g id="#2-Job-page_POP" transform="translate(-850.000000, -426.000000)">
            <g id="Group-10" transform="translate(320.000000, 247.000000)">
                <g id="Group-9" transform="translate(70.000000, 179.000000)">
                    <g id="link" transform="translate(460.000000, 0.000000)">
                        <rect id="Rectangle-3" stroke="#000000" stroke-width="2" x="1" y="1" width="198" height="58" rx="4"></rect>
                        <path d="M60.592,31.704 C61.3066702,31.704 61.9439972,31.770666 62.504,31.904 C63.0640028,32.037334 63.5386647,32.2239988 63.928,32.464 C64.3173353,32.7040012 64.6133323,32.986665 64.816,33.312 C65.0186677,33.637335 65.12,33.9866648 65.12,34.36 L65.12,35 C65.12,35.3733352 65.0186677,35.722665 64.816,36.048 C64.6133323,36.373335 64.3173353,36.6559988 63.928,36.896 C63.5386647,37.1360012 63.0640028,37.322666 62.504,37.456 C61.9439972,37.589334 61.3066702,37.656 60.592,37.656 C59.8773298,37.656 59.2400028,37.589334 58.68,37.456 C58.1199972,37.322666 57.6453353,37.1360012 57.256,36.896 C56.8666647,36.6559988 56.5706677,36.373335 56.368,36.048 C56.1653323,35.722665 56.064,35.3733352 56.064,35 L56.064,34.36 C56.064,33.9866648 56.1653323,33.637335 56.368,33.312 C56.5706677,32.986665 56.8666647,32.7040012 57.256,32.464 C57.6453353,32.2239988 58.1199972,32.037334 58.68,31.904 C59.2400028,31.770666 59.8773298,31.704 60.592,31.704 Z M60.592,36.36 C61.050669,36.36 61.4639982,36.3200004 61.832,36.24 C62.2000018,36.1599996 62.5119987,36.0506674 62.768,35.912 C63.0240013,35.7733326 63.2213326,35.6160009 63.36,35.44 C63.4986674,35.2639991 63.568,35.0853342 63.568,34.904 L63.568,34.456 C63.568,34.2746658 63.4986674,34.0960009 63.36,33.92 C63.2213326,33.7439991 63.0240013,33.589334 62.768,33.456 C62.5119987,33.322666 62.2000018,33.2133338 61.832,33.128 C61.4639982,33.0426662 61.050669,33 60.592,33 C60.1226643,33 59.7040018,33.0426662 59.336,33.128 C58.9679982,33.2133338 58.6560013,33.322666 58.4,33.456 C58.1439987,33.589334 57.949334,33.7439991 57.816,33.92 C57.682666,34.0960009 57.616,34.2746658 57.616,34.456 L57.616,34.904 C57.616,35.0853342 57.682666,35.2639991 57.816,35.44 C57.949334,35.6160009 58.1439987,35.7733326 58.4,35.912 C58.6560013,36.0506674 58.9679982,36.1599996 59.336,36.24 C59.7040018,36.3200004 60.1226643,36.36 60.592,36.36 Z M63.488,31.512 L63.488,22.488 L65.056,22.488 L65.056,31.512 L63.488,31.512 Z M53.792,30.68 L53.792,26.264 L58.8,26.264 L58.8,24.536 L53.792,24.536 L53.792,23.192 L60.368,23.192 L60.368,27.576 L55.36,27.576 L55.36,29.336 L56.704,29.336 C57.1413355,29.336 57.5679979,29.3333334 57.984,29.328 C58.4000021,29.3226666 58.8159979,29.3093334 59.232,29.288 C59.6480021,29.2666666 60.0746645,29.2373335 60.512,29.2 C60.9493355,29.1626665 61.4186642,29.1120003 61.92,29.048 L62.064,30.36 C61.6159978,30.4133336 61.1840021,30.4613331 60.768,30.504 C60.3519979,30.5466669 59.9280022,30.5813332 59.496,30.608 C59.0639978,30.6346668 58.610669,30.6533333 58.136,30.664 C57.661331,30.6746667 57.1306696,30.68 56.544,30.68 L53.792,30.68 Z M79.024,23.768 L79.024,26.296 C79.024,27.0106702 79.0133334,27.6559971 78.992,28.232 C78.9706666,28.8080029 78.9360002,29.3493308 78.888,29.856 C78.8399998,30.3626692 78.7840003,30.8506643 78.72,31.32 C78.6559997,31.7893357 78.5760005,32.2746642 78.48,32.776 L76.896,32.584 C77.0133339,31.9866637 77.1066663,31.4160027 77.176,30.872 C77.2453337,30.3279973 77.3013331,29.7786694 77.344,29.224 L68.928,29.368 L68.896,28.024 L77.424,27.928 C77.424,27.7466658 77.4266666,27.5680009 77.432,27.392 C77.4373334,27.2159991 77.44,27.0373342 77.44,26.856 L77.44,25.144 L69.136,25.144 L69.136,23.768 L79.024,23.768 Z M80.928,33.928 L80.928,35.272 L67.392,35.272 L67.392,33.928 L80.928,33.928 Z M94.512,28.2 C93.978664,27.933332 93.5733347,27.6986677 93.296,27.496 C93.0186653,27.2933323 92.8320005,27.1013342 92.736,26.92 L92.72,26.92 C92.6346662,27.1013342 92.4506681,27.295999 92.168,27.504 C91.8853319,27.712001 91.477336,27.949332 90.944,28.216 C90.5066645,28.4293344 90.0186694,28.6639987 89.48,28.92 C88.9413306,29.1760013 88.3360034,29.4319987 87.664,29.688 L87.04,28.392 C87.6373363,28.1679989 88.2239971,27.9253346 88.8,27.664 C89.3760029,27.4026654 89.9199974,27.1333347 90.432,26.856 C90.7520016,26.6853325 91.0106657,26.5120009 91.208,26.336 C91.4053343,26.1599991 91.5573328,25.9813342 91.664,25.8 C91.7706672,25.6186658 91.8426665,25.4346676 91.88,25.248 C91.9173335,25.0613324 91.936,24.872001 91.936,24.68 L87.696,24.68 L87.696,23.336 L97.776,23.336 L97.776,24.68 L93.52,24.68 C93.52,24.872001 93.5386665,25.0613324 93.576,25.248 C93.6133335,25.4346676 93.6826662,25.6186658 93.784,25.8 C93.8853338,25.9813342 94.0346657,26.1599991 94.232,26.336 C94.4293343,26.5120009 94.6879984,26.6853325 95.008,26.856 C95.5200026,27.1333347 96.0639971,27.4026654 96.64,27.664 C97.2160029,27.9253346 97.8026637,28.1679989 98.4,28.392 L97.792,29.672 C97.1199966,29.4159987 96.5146694,29.1600013 95.976,28.904 C95.4373306,28.6479987 94.9493355,28.4133344 94.512,28.2 Z M91.92,37.24 L91.92,32.184 L85.952,32.184 L85.952,30.84 L99.488,30.84 L99.488,32.184 L93.52,32.184 L93.52,37.24 L91.92,37.24 Z M107.28,27.816 C107.194666,27.9973342 106.994668,28.2266653 106.68,28.504 C106.365332,28.7813347 105.936003,29.090665 105.392,29.432 C104.922664,29.7306682 104.426669,30.0373318 103.904,30.352 C103.381331,30.6666682 102.784003,31.0106648 102.112,31.384 L101.328,30.136 C101.968003,29.7839982 102.554664,29.4533349 103.088,29.144 C103.621336,28.8346651 104.154664,28.4986685 104.688,28.136 C105.050668,27.8906654 105.349332,27.6560011 105.584,27.432 C105.818668,27.2079989 106.002666,26.9733346 106.136,26.728 C106.269334,26.4826654 106.36,26.2133348 106.408,25.92 C106.456,25.6266652 106.48,25.2826686 106.48,24.888 L106.48,23.448 L108.08,23.448 L108.08,24.888 C108.08,25.2826686 108.101333,25.6266652 108.144,25.92 C108.186667,26.2133348 108.277333,26.4853321 108.416,26.736 C108.554667,26.9866679 108.751999,27.2293322 109.008,27.464 C109.264001,27.6986678 109.610664,27.9599986 110.048,28.248 C110.549336,28.5786683 111.050664,28.8879986 111.552,29.176 C112.053336,29.4640014 112.618664,29.778665 113.248,30.12 L112.48,31.352 C111.882664,31.010665 111.301336,30.677335 110.736,30.352 C110.170664,30.026665 109.648002,29.7093349 109.168,29.4 C108.645331,29.0693317 108.224002,28.7680014 107.904,28.496 C107.583998,28.2239986 107.381334,27.9973342 107.296,27.816 L107.28,27.816 Z M114.048,33.928 L114.048,35.272 L100.512,35.272 L100.512,33.928 L106.48,33.928 L106.48,30.76 L108.064,30.76 L108.064,33.928 L114.048,33.928 Z M130.656,28.584 L126.64,28.584 L126.64,29.928 L132.608,29.928 L132.608,31.272 L119.072,31.272 L119.072,29.928 L125.04,29.928 L125.04,28.584 L121.008,28.584 L121.008,22.808 L122.576,22.808 L122.576,24.568 L129.088,24.568 L129.088,22.792 L130.656,22.792 L130.656,28.584 Z M120.816,32.568 L130.72,32.568 L130.72,37.384 L129.136,37.384 L129.136,33.912 L120.816,33.912 L120.816,32.568 Z M122.576,27.256 L129.088,27.256 L129.088,25.848 L122.576,25.848 L122.576,27.256 Z M147.44,29.192 L145.168,29.192 L145.168,37.24 L143.584,37.24 L143.584,22.488 L145.168,22.488 L145.168,27.816 L147.44,27.816 L147.44,29.192 Z M138,29.832 C137.925333,30.0133342 137.816001,30.1946658 137.672,30.376 C137.527999,30.5573342 137.328001,30.7866653 137.072,31.064 C136.741332,31.4266685 136.362669,31.8186646 135.936,32.24 C135.509331,32.6613354 135.024003,33.1226642 134.48,33.624 L133.44,32.552 C134.410672,31.6879957 135.25333,30.8613373 135.968,30.072 C136.213335,29.7946653 136.415999,29.5386678 136.576,29.304 C136.736001,29.0693322 136.861333,28.8373345 136.952,28.608 C137.042667,28.3786655 137.106666,28.1440012 137.144,27.904 C137.181334,27.6639988 137.2,27.4000014 137.2,27.112 L137.2,23.56 L138.8,23.56 L138.8,27.112 C138.8,27.4320016 138.821333,27.7173321 138.864,27.968 C138.906667,28.2186679 138.976,28.4586655 139.072,28.688 C139.168,28.9173345 139.298666,29.1466655 139.464,29.376 C139.629334,29.6053345 139.834665,29.853332 140.08,30.12 C140.421335,30.4933352 140.778665,30.8586649 141.152,31.216 C141.525335,31.5733351 141.951998,31.9653312 142.432,32.392 L141.408,33.48 C140.853331,32.9679974 140.386669,32.5226686 140.008,32.144 C139.629331,31.7653314 139.285335,31.4106683 138.976,31.08 C138.751999,30.8346654 138.552001,30.6053344 138.376,30.392 C138.199999,30.1786656 138.08,29.9920008 138.016,29.832 L138,29.832 Z" id="링크-주소-복사" fill="#000000"></path>
                        <rect id="Rectangle-4" x="0" y="0" width="60" height="60"></rect>
                        <g id="Page-1" transform="translate(16.000000, 17.000000)">
                            <mask id="mask-2" fill="white">
                                <use xlink:href="#path-1"></use>
                            </mask>
                            <g id="Clip-2"></g>
                        </g>
                    </g>
                </g>
            </g>
        </g>
    </g>
</svg>