<?xml version="1.0" encoding="utf-8"?>
<!-- Generator: Adobe Illustrator 17.0.0, SVG Export Plug-In . SVG Version: 6.00 Build 0)  -->
<!DOCTYPE svg PUBLIC "-//W3C//DTD SVG 1.1//EN" "http://www.w3.org/Graphics/SVG/1.1/DTD/svg11.dtd">
<svg version="1.1" id="Layer_1" xmlns="http://www.w3.org/2000/svg" xmlns:xlink="http://www.w3.org/1999/xlink" x="0px" y="0px"
	 width="73.586px" height="10.323px" viewBox="0.121 0.816 73.586 10.323" enable-background="new 0.121 0.816 73.586 10.323"
	 xml:space="preserve">
<title>future JOB</title>
<desc>Created with Sketch.</desc>
<g id="v3">
	<g id="Post-_x3E_-detail" transform="translate(-71.000000, -29.000000)">
		<g id="Group-5">
			<g id="Group-4" transform="translate(20.000000, 15.000000)">
				<g enable-background="new    ">
					<path fill="#323232" d="M53.124,16.987v2.004h2.549v2.003h-2.549V25h-2.003V14.984h5v2.003H53.124z"/>
					<path fill="#323232" d="M57.224,21.512v-6.527h2.003v6.514c0,2.102,3.25,2.102,3.25,0v-6.514h1.989v6.527
						C64.466,26.274,57.224,26.274,57.224,21.512z"/>
					<path fill="#323232" d="M67.837,25v-8.013h-2.493v-1.988h6.99v1.988H69.84V25H67.837z"/>
					<path fill="#323232" d="M73.296,21.512v-6.527H75.3v6.514c0,2.102,3.25,2.102,3.25,0v-6.514h1.989v6.527
						C80.539,26.274,73.296,26.274,73.296,21.512z"/>
					<path fill="#323232" d="M87.243,25l-2.017-3.824h-0.967V25h-2.003V14.984h3.95c3.572,0,3.922,5.029,0.98,5.884L89.512,25
						H87.243z M84.259,19.229h1.765c1.359,0,1.359-2.241,0-2.241h-1.765V19.229z"/>
					<path fill="#323232" d="M90.348,25V14.984h5.016v2.003h-3.012v2.004h2.633v2.003h-2.633v2.003h3.18V25H90.348z"/>
					<path fill="#323232" d="M99.728,22.997h1.919c0.574,0,1.009-0.448,1.009-1.009v-7.004h2.03v7.004
						c0,2.045-1.008,3.012-2.982,3.012h-1.976V22.997z"/>
					<path fill="#323232" d="M111.238,14.816c6.893,0,6.893,10.323,0,10.323C104.347,25.14,104.347,14.816,111.238,14.816z
						 M111.238,16.876c-4.006,0-4.006,6.191,0,6.191S115.244,16.876,111.238,16.876z"/>
					<path fill="#323232" d="M117.787,14.971h3.965c1.779,0,2.885,1.274,2.844,3.039c-0.028,0.757-0.295,1.541-0.925,1.976
						c0.658,0.448,1.036,1.219,1.036,2.003c0,1.681-1.33,3.012-2.955,3.012h-3.965V14.971z M119.805,18.991h1.205h0.574
						c0.574,0,0.924-0.463,0.924-1.009c0-0.561-0.35-1.009-0.924-1.009h-1.779V18.991z M119.805,22.997h1.205h0.574
						c0.574,0,1.008-0.448,1.008-1.009s-0.434-0.994-1.008-0.994h-1.779V22.997z"/>
				</g>
			</g>
		</g>
	</g>
</g>
</svg>
