<?xml version="1.0" encoding="utf-8"?>
<!-- Generator: Adobe Illustrator 17.0.0, SVG Export Plug-In . SVG Version: 6.00 Build 0)  -->
<!DOCTYPE svg PUBLIC "-//W3C//DTD SVG 1.1//EN" "http://www.w3.org/Graphics/SVG/1.1/DTD/svg11.dtd">
<svg version="1.1" id="Layer_1" xmlns="http://www.w3.org/2000/svg" xmlns:xlink="http://www.w3.org/1999/xlink" x="0px" y="0px"
	 width="24px" height="17px" viewBox="0 0 24 17" enable-background="new 0 0 24 17" xml:space="preserve">
<g id="v3">
	<g id="Post-_x3E_-detail" transform="translate(-323.000000, -27.000000)">
		<g id="Group-3" transform="translate(315.000000, 15.000000)">
			<rect id="Rectangle-11" fill="none" width="40" height="40"/>
			<g id="menu_icon" transform="translate(8.000000, 8.000000)">
				<g id="Group" transform="translate(1.000000, 4.000000)">
					<g>
						<path id="Shape_1_" fill="#FFFFFF" d="M21.476,1.997H0.518c-0.276,0-0.5-0.224-0.5-0.5s0.224-0.5,0.5-0.5h20.957
							c0.276,0,0.5,0.224,0.5,0.5S21.752,1.997,21.476,1.997z"/>
						<path fill="#FFFFFF" d="M21.476,2.497H0.518c-0.551,0-1-0.449-1-1s0.449-1,1-1h20.958c0.552,0,1,0.449,1,1
							S22.027,2.497,21.476,2.497z M21.476,1.497v0.5V1.497L21.476,1.497z"/>
					</g>
					<g>
						<path id="Shape_2_" fill="#FFFFFF" d="M21.476,8.998H0.518c-0.276,0-0.5-0.224-0.5-0.5c0-0.276,0.224-0.5,0.5-0.5h20.957
							c0.276,0,0.5,0.224,0.5,0.5C21.976,8.774,21.752,8.998,21.476,8.998z"/>
						<path fill="#FFFFFF" d="M21.476,9.498H0.518c-0.551,0-1-0.448-1-1c0-0.551,0.449-1,1-1h20.958c0.552,0,1,0.449,1,1
							C22.476,9.05,22.027,9.498,21.476,9.498z M21.476,8.498v0.5V8.498L21.476,8.498z"/>
					</g>
					<g>
						<path id="Shape_3_" fill="#FFFFFF" d="M21.476,16H0.518c-0.276,0-0.5-0.224-0.5-0.5s0.224-0.5,0.5-0.5h20.957
							c0.276,0,0.5,0.224,0.5,0.5S21.752,16,21.476,16z"/>
						<path fill="#FFFFFF" d="M21.476,16.5H0.518c-0.551,0-1-0.448-1-1s0.449-1,1-1h20.958c0.552,0,1,0.448,1,1
							S22.027,16.5,21.476,16.5z M21.476,15.5V16V15.5L21.476,15.5z"/>
					</g>
				</g>
				<rect id="Rectangle-path" fill="none" width="24" height="24"/>
			</g>
		</g>
	</g>
</g>
</svg>
